<svg width="128" height="128" viewBox="0 0 128 128" fill="none" xmlns="http://www.w3.org/2000/svg">
  <defs>
    <linearGradient id="glow" x1="0%" y1="0%" x2="100%" y2="100%">
      <stop offset="0%" style="stop-color:#00ff9d;stop-opacity:0.5" />
      <stop offset="100%" style="stop-color:#9d00ff;stop-opacity:0.5" />
    </linearGradient>
    <filter id="blur">
      <feGaussianBlur stdDeviation="2" />
    </filter>
  </defs>
  <g filter="url(#blur)">
    <path d="M64 16C37.49 16 16 37.49 16 64C16 90.51 37.49 112 64 112C90.51 112 112 90.51 112 64C112 37.49 90.51 16 64 16ZM64 104C41.91 104 24 86.09 24 64C24 41.91 41.91 24 64 24C86.09 24 104 41.91 104 64C104 86.09 86.09 104 64 104Z" fill="url(#glow)"/>
    <path d="M45 56C48.866 56 52 52.866 52 49C52 45.134 48.866 42 45 42C41.134 42 38 45.134 38 49C38 52.866 41.134 56 45 56Z" fill="#FFD700"/>
    <path d="M83 56C86.866 56 90 52.866 90 49C90 45.134 86.866 42 83 42C79.134 42 76 45.134 76 49C76 52.866 79.134 56 83 56Z" fill="#FFD700"/>
    <path d="M64 88C77.25 88 88 77.25 88 64H40C40 77.25 50.75 88 64 88Z" fill="#FFD700"/>
  </g>
</svg>
